<?xml version="1.0" encoding="utf-8"?>
<svg width="96" height="32" viewBox="0 0 96 32" fill="none" xmlns="http://www.w3.org/2000/svg">
    <path d="M5.77361 9.60322H0V23.4008H5.77361V9.60322Z" fill="#0052FE"/>
    <path d="M2.88681 7.36604C4.48024 7.36604 5.77361 6.08899 5.77361 4.51303C5.77361 2.93706 4.48024 1.66002 2.88681 1.66002C1.29337 1.66002 0 2.93706 0 4.51303C0 6.08899 1.29337 7.36604 2.88681 7.36604Z" fill="#0052FE"/>
    <path d="M25.2514 16.5019C25.2514 12.3683 22.3646 9.27197 18.1861 9.27197C13.9627 9.27197 11.1208 12.3683 11.1208 16.5019C11.1208 20.6355 13.9627 23.7318 18.1861 23.7318C22.3646 23.7318 25.2514 20.6355 25.2514 16.5019ZM19.5244 16.5019C19.5244 18.6733 18.8021 19.9504 17.0946 19.9504C15.3871 19.9504 14.6648 18.6733 14.6648 16.5019C14.6648 14.3305 15.3871 13.0534 17.0946 13.0534C18.8021 13.0534 19.5244 14.3305 19.5244 16.5019Z" fill="#0052FE"/>
    <path d="M42.0568 23.4008L37.9682 17.6133L42.0568 11.8259H37.8784L35.2162 15.7239L32.5539 11.8259H28.3755L32.464 17.6133L28.3755 23.4008H32.5539L35.2162 19.5027L37.8784 23.4008H42.0568Z" fill="#0052FE"/>
    <path d="M54.4889 20.3596C54.4889 18.7386 53.4921 17.7379 50.7401 17.1313L48.9428 16.7002C47.7663 16.4245 47.4071 16.0485 47.4071 15.4969C47.4071 14.7247 48.0845 14.2386 49.1711 14.2386C50.3476 14.2386 51.0699 14.8452 51.1148 15.7359H54.3094C54.2645 13.1634 52.2709 11.5424 49.2161 11.5424C46.0747 11.5424 44.0362 13.1634 44.0362 15.6076C44.0362 17.2836 45.1228 18.4507 47.7663 19.0573L49.5636 19.4884C50.7401 19.7641 51.0993 20.1401 51.0993 20.6917C51.0993 21.5189 50.3321 22.0049 49.1557 22.0049C47.8894 22.0049 47.0773 21.3983 47.0324 20.4526H43.8378C43.9277 23.0251 45.9662 23.7318 49.2161 23.7318C52.4211 23.7318 54.4889 22.3997 54.4889 20.3596Z" fill="#0052FE"/>
    <path d="M67.7308 20.3596C67.7308 18.7386 66.734 17.7379 63.982 17.1313L62.1847 16.7002C61.0082 16.4245 60.649 16.0485 60.649 15.4969C60.649 14.7247 61.3264 14.2386 62.413 14.2386C63.5895 14.2386 64.3118 14.8452 64.3567 15.7359H67.5513C67.5064 13.1634 65.5128 11.5424 62.458 11.5424C59.3166 11.5424 57.2781 13.1634 57.2781 15.6076C57.2781 17.2836 58.3647 18.4507 61.0082 19.0573L62.8055 19.4884C63.982 19.7641 64.3412 20.1401 64.3412 20.6917C64.3412 21.5189 63.574 22.0049 62.3976 22.0049C61.1313 22.0049 60.3192 21.3983 60.2743 20.4526H57.0797C57.1696 23.0251 59.2081 23.7318 62.458 23.7318C65.663 23.7318 67.7308 22.3997 67.7308 20.3596Z" fill="#0052FE"/>
    <path d="M73.9501 6.69556H70.5792V23.4008H73.9501V6.69556Z" fill="#0052FE"/>
    <path d="M89.7415 16.5019C89.7415 12.3683 86.8547 9.27197 82.6762 9.27197C78.4528 9.27197 75.6109 12.3683 75.6109 16.5019C75.6109 20.6355 78.4528 23.7318 82.6762 23.7318C86.8547 23.7318 89.7415 20.6355 89.7415 16.5019ZM83.9696 16.5019C83.9696 18.6733 83.2473 19.9504 81.5398 19.9504C79.8323 19.9504 79.11 18.6733 79.11 16.5019C79.11 14.3305 79.8323 13.0534 81.5398 13.0534C83.2473 13.0534 83.9696 14.3305 83.9696 16.5019Z" fill="#0052FE"/>
    <path d="M95.9999 9.60322H92.629V23.4008H95.9999V9.60322Z" fill="#0052FE"/>
    <path d="M94.3145 7.36604C95.9079 7.36604 97.2013 6.08899 97.2013 4.51303C97.2013 2.93706 95.9079 1.66002 94.3145 1.66002C92.721 1.66002 91.4277 2.93706 91.4277 4.51303C91.4277 6.08899 92.721 7.36604 94.3145 7.36604Z" fill="#0052FE"/>
</svg>
